<?xml version="1.0" ?>
<svg height="24" id="icon-facebook" version="1.1" viewBox="0 0 6.3499999 6.3500002" width="24"
     xmlns="http://www.w3.org/2000/svg" xmlns:svg="http://www.w3.org/2000/svg">
    <defs id="icon-facebook"/>
    <g id="icon-facebook-body" transform="translate(0,-290.64999)">
        <path d="M 1.0583333,290.64999 C 0.4720167,290.64999 3.4999998e-8,291.12201 3.4999998e-8,291.70832 v 4.23334 c 0,0.58631 0.472016665000002,1.05833 1.058333265000002,1.05833 h 4.2333334 c 0.5863167,0 1.0583333,-0.47202 1.0583333,-1.05833 v -4.23334 c 0,-0.58631 -0.4720166,-1.05833 -1.0583333,-1.05833 z m 2.4933884,1.19063 h 0.6154658 v 0.66249 H 3.7263864 c -0.099801,0 -0.22996,0.0323 -0.22996,0.24804 v 0.47543 h 0.6707611 l -0.098703,0.71778 H 3.4964264 v 1.86501 H 2.7791595 v -1.86501 h -0.596347 v -0.71778 h 0.596347 v -0.61444 c 0,-0.4218 0.3507608,-0.77152 0.7725622,-0.77152 z"
              id="icon-facebook-body-"
              style="opacity:0.9;fill:#4966AD;fill-opacity:1;stroke:none;stroke-width:0.26458335;stroke-linecap:butt;stroke-linejoin:miter;stroke-miterlimit:4;stroke-dasharray:none;stroke-dashoffset:0;stroke-opacity:1"/>
    </g>
</svg>