<?xml version="1.0" ?>
<svg height="24" id="icon-twitter" version="1.1" viewBox="0 0 6.3499999 6.3500002" width="24"
     xmlns="http://www.w3.org/2000/svg" xmlns:svg="http://www.w3.org/2000/svg">
    <defs id="icon-twitter"/>
    <g id="icon-twitter-body" transform="translate(0,-290.64999)">
        <path d="M 1.0583333,290.64999 C 0.47201672,290.64999 4.9999998e-8,291.12201 4.9999998e-8,291.70832 v 4.23334 c 0,0.58631 0.472016670000002,1.05833 1.058333250000002,1.05833 h 4.2333334 c 0.5863167,0 1.0583333,-0.47202 1.0583333,-1.05833 v -4.23334 c 0,-0.58631 -0.4720166,-1.05833 -1.0583333,-1.05833 z m 2.8850961,1.54719 a 0.835122,0.835122 0 0 1 0.6061631,0.262 c 0.044844,-0.01 0.3038342,-0.069 0.5002292,-0.20205 0,0 -0.090284,0.3144 -0.3302133,0.45062 0,0 0.2418345,-0.0266 0.4397666,-0.11318 0,0 -0.2022792,0.28262 -0.3824049,0.4005 a 0.835122,0.835122 0 0 1 0.00106,0.0372 0.835122,0.835122 0 0 1 -0.00159,0.0351 2.3543379,2.3543379 0 0 1 0.00159,0.031 2.3543379,2.3543379 0 0 1 -2.3543763,2.35438 2.3543379,2.3543379 0 0 1 -1.2330006,-0.35192 c 0.7362005,0.0407 1.176647,-0.34985 1.176647,-0.34985 -0.6397519,-0.0495 -0.7549938,-0.57154 -0.7549938,-0.57154 0.1855655,0.0318 0.3638021,-0.0114 0.3638021,-0.0114 -0.6859138,-0.18379 -0.6547406,-0.81855 -0.6547406,-0.81855 0.1549559,0.095 0.3638021,0.10077 0.3638021,0.10077 -0.6326823,-0.47717 -0.2402946,-1.1033 -0.2402946,-1.1033 0.6614081,0.81704 1.5381341,0.86699 1.6846497,0.87023 a 0.835122,0.835122 0 0 1 -0.021696,-0.185 0.835122,0.835122 0 0 1 0.8356097,-0.83509 z"
              id="con-twitter-body-"
              style="opacity:0.9;fill:#4A9FEC;fill-opacity:1;stroke:none;stroke-width:0.26458335;stroke-linecap:butt;stroke-linejoin:miter;stroke-miterlimit:4;stroke-dasharray:none;stroke-dashoffset:0;stroke-opacity:1"/>
    </g>
</svg>