<?xml version="1.0" ?>
<svg width="24" height="24" id="icon-google-plus" version="1.1" viewBox="0 0 6.3499999 6.3500002"
     xmlns="http://www.w3.org/2000/svg" xmlns:svg="http://www.w3.org/2000/svg">
    <defs id="icon-google-plus"/>
    <g id="icon-google-plus-body" transform="translate(0,-290.64999)">
        <path d="M 1.0583333,290.64999 C 0.47201669,290.64999 2.4999999e-8,291.12201 2.4999999e-8,291.70832 v 4.23334 c 0,0.58631 0.472016665000001,1.05833 1.058333275000001,1.05833 h 4.2333334 c 0.5863167,0 1.0583333,-0.47202 1.0583333,-1.05833 v -4.23334 c 0,-0.58631 -0.4720166,-1.05833 -1.0583333,-1.05833 z m 1.3921635,1.91513 c 0.3340814,0 0.654685,0.13272 0.8909023,0.36897 l -0.3560524,0.35657 c -0.1418378,-0.14187 -0.3342455,-0.2217 -0.5348499,-0.2217 -0.4204865,0 -0.7555098,0.33554 -0.7555098,0.75603 0,0.42049 0.3350233,0.75603 0.7555098,0.75603 0.3215349,0 0.6001041,-0.19989 0.7141686,-0.50385 H 2.4504968 v -0.50436 h 1.2598717 v 0.25218 c 0,0.69285 -0.5670232,1.25987 -1.2598717,1.25987 -0.6928512,0 -1.2598718,-0.56702 -1.2598718,-1.25987 0,-0.69285 0.5670206,-1.25987 1.2598718,-1.25987 z m 1.9311488,0.58911 h 0.3591507 v 0.41858 H 5.159375 v 0.35967 H 4.7407963 v 0.41858 H 4.3816456 v -0.41858 H 3.9625482 v -0.35967 h 0.4190974 z"
              id="rect5232"
              style="opacity:0.9;fill:#CD5344;fill-opacity:1;stroke:none;stroke-width:0.26458335;stroke-linecap:butt;stroke-linejoin:miter;stroke-miterlimit:4;stroke-dasharray:none;stroke-dashoffset:0;stroke-opacity:1"/>
    </g>
</svg>