<?xml version="1.0" encoding="utf-8"?>
<!-- Generator: Adobe Illustrator 19.2.0, SVG Export Plug-In . SVG Version: 6.00 Build 0)  -->
<svg version="1.1" id="Layer_1" xmlns="http://www.w3.org/2000/svg" xmlns:xlink="http://www.w3.org/1999/xlink" x="0px" y="0px"
	 viewBox="0 0 56 64" style="enable-background:new 0 0 56 64;" xml:space="preserve">
<style type="text/css">
	.st0{display:none;}
	.st1{display:inline;fill:#FFFFFF;stroke:#000000;stroke-miterlimit:10;}
	.st2{fill:#E02F2F;}
	.st3{fill:#FFFFFF;}
</style>
<g id="Layer_2" class="st0">
	<rect x="-50" y="-23" class="st1" width="168" height="144"/>
</g>
<g id="Layer_1_1_">
	<g>
		<path class="st2" d="M43.7,25.2c0,0-0.3-2.4-1.3-3.4c-1.2-1.4-2.6-1.4-3.2-1.4C34.7,20,28,20,28,20l0,0c0,0-6.7,0-11.2,0.3
			c-0.6,0.1-2,0.1-3.2,1.4c-1,1-1.3,3.4-1.3,3.4S12,27.9,12,30.7v2.6c0,2.8,0.3,5.5,0.3,5.5s0.3,2.4,1.3,3.4
			c1.2,1.4,2.8,1.3,3.5,1.5C19.7,43.9,28,44,28,44s6.7,0,11.2-0.4c0.6-0.1,2-0.1,3.2-1.4c1-1,1.3-3.4,1.3-3.4S44,36,44,33.3v-2.6
			C44,27.9,43.7,25.2,43.7,25.2z"/>
		<polygon class="st3" points="24,26 24,38 34,32 		"/>
	</g>
</g>
</svg>
